<svg width="22" height="23" fill="none" xmlns="http://www.w3.org/2000/svg"><path d="M11 1c-1.5 0-2.672.552-3.516 1.656C6.641 3.76 6.22 5.172 6.22 6.891c-.01 2.135.677 3.828 2.062 5.078.177.166.24.38.188.64l-.36.75c-.114.25-.283.446-.507.586-.224.14-.696.341-1.415.602l-1.976.64c-1.287.417-1.971.646-2.055.688-.875.365-1.448.745-1.719 1.14C.147 17.673 0 19.334 0 22h22c0-2.667-.146-4.328-.438-4.984-.27-.396-.843-.776-1.718-1.141-.084-.042-.768-.27-2.055-.688l-1.977-.64c-.718-.26-1.19-.461-1.414-.602a1.328 1.328 0 01-.507-.586l-.36-.75c-.052-.26.01-.474.188-.64 1.385-1.25 2.073-2.943 2.062-5.078 0-1.72-.422-3.13-1.265-4.235C13.672 1.552 12.5 1 11 1z" fill="#fff"/></svg>