<svg width="168" height="42" fill="none" xmlns="http://www.w3.org/2000/svg"><g clip-path="url(#clip0_2_75)" fill="#FFBD2C"><path d="M30.911 12.563l-7.827 24.786L42 12.563H30.911zM6.098 3.795l-6.01 7.211h10.216L6.098 3.795zm29.804 0l-4.206 7.211H41.91l-6.009-7.211zm-24.813 8.768H0l18.916 24.786-7.827-24.786zm11.79-9.341l7.298 7.298 4.257-7.298H22.88zm-15.313 0l4.257 7.298 7.298-7.298H7.566zm5.155 9.341L21 38.778l8.279-26.215H12.72zM21 3.544l-7.461 7.462h14.923L21 3.544z"/></g><path d="M66.568 18.704a9.97 9.97 0 00-1.32-.102c-1.388 0-2.298.47-2.73 1.41V29H58.85V15.264h3.465l.102 1.637c.736-1.26 1.756-1.891 3.06-1.891.406 0 .787.055 1.142.165l-.05 3.53zm7.846 10.55c-2.014 0-3.656-.618-4.926-1.854-1.26-1.235-1.891-2.881-1.891-4.938v-.356c0-1.38.266-2.61.8-3.694.533-1.092 1.286-1.93 2.26-2.514.981-.592 2.098-.888 3.35-.888 1.88 0 3.357.592 4.431 1.777 1.084 1.185 1.626 2.865 1.626 5.04v1.498h-8.748c.119.897.474 1.617 1.067 2.158.6.542 1.358.813 2.272.813 1.414 0 2.518-.512 3.314-1.536l1.803 2.018c-.55.779-1.295 1.388-2.235 1.828-.94.432-1.98.648-3.123.648zm-.419-11.274c-.728 0-1.32.246-1.777.737-.449.49-.737 1.193-.864 2.107h5.104v-.292c-.017-.812-.237-1.439-.66-1.879-.423-.448-1.024-.672-1.803-.672zm20.11 6.03l1.802-8.746h3.542L95.945 29h-3.072l-2.603-8.645L87.668 29h-3.06l-3.504-13.736h3.543l1.79 8.734 2.513-8.734h2.653l2.502 8.747zM109.237 29c-.169-.33-.292-.74-.368-1.231-.889.99-2.044 1.485-3.466 1.485-1.345 0-2.463-.39-3.351-1.168-.88-.779-1.321-1.76-1.321-2.945 0-1.456.538-2.573 1.613-3.352 1.083-.779 2.645-1.172 4.684-1.18h1.689v-.788c0-.635-.165-1.142-.495-1.523-.322-.381-.834-.571-1.536-.571-.618 0-1.105.148-1.46.444-.347.296-.521.702-.521 1.219h-3.669c0-.796.246-1.532.736-2.21.491-.676 1.185-1.205 2.082-1.586.898-.39 1.905-.584 3.022-.584 1.693 0 3.034.427 4.024 1.282.999.846 1.498 2.04 1.498 3.58v5.954c.009 1.304.191 2.29.546 2.958V29h-3.707zm-3.034-2.552c.542 0 1.041-.118 1.498-.355.457-.246.796-.572 1.016-.978v-2.361h-1.371c-1.837 0-2.814.635-2.933 1.904l-.013.216c0 .457.161.834.483 1.13.321.296.762.444 1.32.444zm16.733-7.744c-.5-.068-.94-.102-1.321-.102-1.388 0-2.298.47-2.729 1.41V29h-3.669V15.264h3.466l.101 1.637c.737-1.26 1.756-1.891 3.06-1.891.406 0 .787.055 1.142.165l-.05 3.53zm.952 3.326c0-2.141.478-3.846 1.434-5.116.965-1.27 2.281-1.904 3.949-1.904 1.337 0 2.441.5 3.313 1.498V9.5h3.682V29h-3.314l-.178-1.46c-.914 1.143-2.09 1.714-3.529 1.714-1.616 0-2.916-.635-3.897-1.904-.974-1.278-1.46-3.052-1.46-5.32zm3.669.267c0 1.286.224 2.272.672 2.958.449.685 1.101 1.028 1.956 1.028 1.134 0 1.933-.478 2.399-1.434v-5.421c-.457-.957-1.248-1.435-2.374-1.435-1.769 0-2.653 1.435-2.653 4.304zm19.982-.686c-.956.94-2.074 1.41-3.351 1.41-1.634 0-2.942-.56-3.923-1.676-.982-1.126-1.473-2.64-1.473-4.545 0-1.21.262-2.32.787-3.326.533-1.016 1.274-1.803 2.222-2.362.948-.567 2.014-.85 3.199-.85 1.219 0 2.302.304 3.25.914.948.61 1.684 1.485 2.209 2.628.525 1.142.791 2.45.8 3.923v1.358c0 3.08-.766 5.501-2.298 7.262-1.532 1.76-3.703 2.7-6.513 2.818l-.901.013v-3.06l.812-.012c3.191-.144 4.918-1.643 5.18-4.495zm-2.45-1.396c.592 0 1.1-.152 1.523-.457a3.03 3.03 0 00.978-1.105v-1.51c0-1.245-.237-2.21-.711-2.895s-1.109-1.028-1.904-1.028c-.737 0-1.342.338-1.816 1.015-.474.669-.711 1.511-.711 2.527 0 1.007.229 1.836.686 2.488.465.643 1.117.965 1.955.965zm17.38 1.396c-.957.94-2.074 1.41-3.352 1.41-1.633 0-2.941-.56-3.923-1.676-.981-1.126-1.472-2.64-1.472-4.545 0-1.21.262-2.32.787-3.326.533-1.016 1.274-1.803 2.221-2.362.948-.567 2.015-.85 3.2-.85 1.218 0 2.302.304 3.25.914.948.61 1.684 1.485 2.209 2.628.524 1.142.791 2.45.799 3.923v1.358c0 3.08-.765 5.501-2.297 7.262-1.532 1.76-3.703 2.7-6.513 2.818l-.901.013v-3.06l.812-.012c3.191-.144 4.917-1.643 5.18-4.495zm-2.45-1.396c.592 0 1.1-.152 1.523-.457a3.04 3.04 0 00.978-1.105v-1.51c0-1.245-.237-2.21-.711-2.895s-1.109-1.028-1.905-1.028c-.736 0-1.341.338-1.815 1.015-.474.669-.711 1.511-.711 2.527 0 1.007.228 1.836.685 2.488.466.643 1.118.965 1.956.965z" fill="#FFBD2C"/><defs><clipPath id="clip0_2_75"><path fill="#fff" d="M0 0h42v42H0z"/></clipPath></defs></svg>