<svg width="29" height="29" viewBox="0 0 29 29" fill="none" xmlns="http://www.w3.org/2000/svg">
<path d="M24.5625 8.83594H20.7109V8.38281C20.7109 5.50547 18.3773 3.17188 15.5 3.17188C12.6227 3.17188 10.2891 5.50547 10.2891 8.38281V8.83594H6.4375C5.93623 8.83594 5.53125 9.24092 5.53125 9.74219V24.9219C5.53125 25.4231 5.93623 25.8281 6.4375 25.8281H24.5625C25.0638 25.8281 25.4688 25.4231 25.4688 24.9219V9.74219C25.4688 9.24092 25.0638 8.83594 24.5625 8.83594ZM18.6719 8.83594H12.3281V8.38281C12.3281 6.62979 13.747 5.21094 15.5 5.21094C17.253 5.21094 18.6719 6.62979 18.6719 8.38281V8.83594Z" fill="white"/>
</svg>
