<svg width="26" height="24" fill="none" xmlns="http://www.w3.org/2000/svg"><g clip-path="url(#clip0_2_716)"><path fill-rule="evenodd" clip-rule="evenodd" d="M18.305 1.5H4.714v1.546H-.012v7.255c0 2.803 3.19 5.11 6.32 5.35 1.029 1.08 2.836 1.864 4.445 2.199v1.896c-1.538.463-4.287 1.553-4.444 2.739h10.559c-.16-1.186-3.187-2.277-4.73-2.739V17.85c1.616-.335 3.505-1.119 4.534-2.199 3.13-.24 6.179-2.547 6.179-5.35V3.045h-4.546V1.5zM1.44 4.42h3.165v6.25c0 1.232.324 2.405.894 3.462-2.367-.74-4.059-2.645-4.059-4.874V4.421zm12.395 7.622l-2.362-1.277-2.364 1.277.45-2.7-1.911-1.911 2.641-.394 1.184-2.455 1.18 2.455 2.642.394-1.912 1.911.452 2.7zm3.51 2.289a7.807 7.807 0 00.902-3.617V4.461h3.172V9.24c0 2.33-1.7 4.319-4.075 5.091z" fill="#fff"/></g><defs><clipPath id="clip0_2_716"><path fill="#fff" d="M0 0h26v24H0z"/></clipPath></defs></svg>