<svg width="26" height="24" viewBox="0 0 26 24" fill="none" xmlns="http://www.w3.org/2000/svg">
<g clip-path="url(#clip0_2_716)">
<path fill-rule="evenodd" clip-rule="evenodd" d="M18.3055 1.5H4.71361V3.0465H-0.0122681V10.3005C-0.0122681 13.104 3.17808 15.411 6.30879 15.651C7.33656 16.731 9.14432 17.5155 10.7533 17.85V19.746C9.21467 20.2095 6.46632 21.2985 6.30879 22.485H16.8679C16.7088 21.2985 13.6806 20.208 12.1389 19.746V17.85C13.754 17.5155 15.6428 16.731 16.6721 15.651C19.8013 15.411 22.8509 13.104 22.8509 10.3005V3.0465H18.3055V1.5ZM1.43914 4.4205H4.6035V10.6695C4.6035 11.9025 4.92773 13.0755 5.4982 14.1315C3.13067 13.392 1.43914 11.487 1.43914 9.258V4.4205ZM13.8335 12.042L11.4721 10.7655L9.10761 12.042L9.55879 9.342L7.64703 7.431L10.2883 7.0365L11.4721 4.5825L12.6528 7.0365L15.2941 7.431L13.3823 9.342L13.8335 12.042ZM17.3435 14.331C17.917 13.227 18.2459 12.006 18.2459 10.7145V4.461H21.4179V9.24C21.4179 11.5695 19.7187 13.5585 17.3435 14.331Z" fill="white"/>
</g>
<defs>
<clipPath id="clip0_2_716">
<rect width="26" height="24" fill="white"/>
</clipPath>
</defs>
</svg>
