<svg width="22" height="23" viewBox="0 0 22 23" fill="none" xmlns="http://www.w3.org/2000/svg">
<path d="M11 1C9.5 1 8.32812 1.55208 7.48438 2.65625C6.64062 3.76042 6.21875 5.17188 6.21875 6.89062C6.20833 9.02604 6.89583 10.7188 8.28125 11.9688C8.45833 12.1354 8.52083 12.349 8.46875 12.6094L8.10938 13.3594C7.99479 13.6094 7.82552 13.8047 7.60156 13.9453C7.3776 14.0859 6.90625 14.2865 6.1875 14.5469C6.15625 14.5573 5.4974 14.7708 4.21094 15.1875C2.92448 15.6042 2.23958 15.8333 2.15625 15.875C1.28125 16.2396 0.708333 16.6198 0.4375 17.0156C0.145833 17.6719 0 19.3333 0 22H22C22 19.3333 21.8542 17.6719 21.5625 17.0156C21.2917 16.6198 20.7188 16.2396 19.8438 15.875C19.7604 15.8333 19.0755 15.6042 17.7891 15.1875C16.5026 14.7708 15.8438 14.5573 15.8125 14.5469C15.0938 14.2865 14.6224 14.0859 14.3984 13.9453C14.1745 13.8047 14.0052 13.6094 13.8906 13.3594L13.5312 12.6094C13.4792 12.349 13.5417 12.1354 13.7188 11.9688C15.1042 10.7188 15.7917 9.02604 15.7812 6.89062C15.7812 5.17188 15.3594 3.76042 14.5156 2.65625C13.6719 1.55208 12.5 1 11 1Z" fill="white"/>
</svg>
